<svg xmlns="http://www.w3.org/2000/svg" xmlns:xlink="http://www.w3.org/1999/xlink" width="1080" zoomAndPan="magnify" viewBox="0 0 810 809.999993" height="1080" preserveAspectRatio="xMidYMid meet" version="1.0"><defs><g/><clipPath id="id1"><path d="M 138.160156 359.167969 L 162.160156 359.167969 L 162.160156 377.167969 L 138.160156 377.167969 Z M 138.160156 359.167969 " clip-rule="nonzero"/></clipPath></defs><rect x="-81" width="972" fill="#ffffff" y="-80.999999" height="971.999992" fill-opacity="1"/><rect x="-81" width="972" fill="#ffffff" y="-80.999999" height="971.999992" fill-opacity="1"/><g fill="#1c2a57" fill-opacity="1"><g transform="translate(136.666637, 440.250055)"><g><path d="M 26.636719 0 L 43.234375 0 C 43.917969 0 44.375 -0.457031 44.375 -1.140625 L 44.375 -63.652344 L 66.449219 -63.652344 C 67.191406 -63.652344 67.644531 -64.109375 67.644531 -64.851562 L 67.644531 -79.453125 C 67.644531 -80.136719 67.191406 -80.59375 66.449219 -80.59375 L 3.363281 -80.59375 C 2.679688 -80.59375 2.222656 -80.136719 2.222656 -79.453125 L 2.222656 -64.851562 C 2.222656 -64.109375 2.679688 -63.652344 3.363281 -63.652344 L 25.4375 -63.652344 L 25.4375 -1.140625 C 25.4375 -0.457031 25.953125 0 26.636719 0 Z M 26.636719 0 "/></g></g><g transform="translate(206.537392, 440.250055)"><g><path d="M 74.546875 -1.425781 L 61.03125 -35.535156 C 68.214844 -39.527344 72.664062 -46.882812 72.664062 -56.867188 C 72.664062 -73.804688 62.054688 -80.59375 47.167969 -80.59375 L 10.496094 -80.59375 C 9.808594 -80.59375 9.355469 -80.136719 9.355469 -79.453125 L 9.355469 -1.140625 C 9.355469 -0.457031 9.808594 0 10.496094 0 L 26.980469 0 C 27.664062 0 28.175781 -0.457031 28.175781 -1.140625 L 28.175781 -32.226562 L 43.121094 -32.226562 L 54.925781 -0.914062 C 55.15625 -0.226562 55.613281 0 56.183594 0 L 73.691406 0 C 74.546875 0 74.890625 -0.570312 74.546875 -1.425781 Z M 28.175781 -63.652344 L 45.117188 -63.652344 C 50.707031 -63.652344 53.957031 -61.199219 53.957031 -56.296875 C 53.957031 -51.164062 50.707031 -48.597656 45.117188 -48.597656 L 28.175781 -48.597656 Z M 28.175781 -63.652344 "/></g></g><g transform="translate(285.248936, 440.250055)"><g><path d="M 39.925781 1.3125 C 62.742188 1.3125 72.09375 -12.148438 72.09375 -32.796875 L 72.09375 -79.453125 C 72.09375 -80.136719 71.582031 -80.59375 70.898438 -80.59375 L 54.183594 -80.59375 C 53.5 -80.59375 53.042969 -80.136719 53.042969 -79.453125 L 53.042969 -31.65625 C 53.042969 -22.414062 51.277344 -15.628906 39.925781 -15.628906 C 28.519531 -15.628906 26.636719 -22.414062 26.636719 -31.882812 L 26.636719 -79.453125 C 26.636719 -80.136719 26.179688 -80.59375 25.4375 -80.59375 L 8.898438 -80.59375 C 8.15625 -80.59375 7.699219 -80.136719 7.699219 -79.453125 L 7.699219 -32.226562 C 7.699219 -12.261719 16.941406 1.3125 39.925781 1.3125 Z M 39.925781 1.3125 "/></g></g><g transform="translate(365.044189, 440.250055)"><g><path d="M 44.601562 1.3125 C 67.074219 1.3125 79.679688 -11.921875 83.386719 -28.746094 C 83.503906 -29.429688 83.160156 -29.773438 82.363281 -29.773438 L 64.339844 -29.773438 C 63.769531 -29.773438 63.199219 -29.429688 62.96875 -28.859375 C 60.175781 -20.191406 53.730469 -15.285156 44.601562 -15.285156 C 31.882812 -15.285156 24.296875 -24.527344 24.296875 -40.324219 C 24.296875 -56.066406 31.882812 -65.308594 44.601562 -65.308594 C 53.730469 -65.308594 60.175781 -60.402344 62.96875 -51.734375 C 63.199219 -51.164062 63.769531 -50.820312 64.339844 -50.820312 L 82.363281 -50.820312 C 83.160156 -50.820312 83.503906 -51.277344 83.386719 -52.074219 C 79.566406 -68.785156 66.960938 -81.90625 44.601562 -81.90625 C 17.054688 -81.90625 4.335938 -62.285156 4.335938 -40.324219 C 4.335938 -18.367188 17.054688 1.3125 44.601562 1.3125 Z M 44.601562 1.3125 "/></g></g><g transform="translate(452.083186, 440.250055)"><g><path d="M 77.113281 -1.425781 L 55.839844 -55.097656 L 75.6875 -79.226562 C 76.257812 -80.023438 75.917969 -80.59375 75.003906 -80.59375 L 54.925781 -80.59375 C 54.300781 -80.59375 53.84375 -80.480469 53.5 -79.910156 L 28.40625 -45.574219 L 28.40625 -79.453125 C 28.40625 -80.136719 27.890625 -80.59375 27.207031 -80.59375 L 10.609375 -80.59375 C 9.925781 -80.59375 9.46875 -80.136719 9.46875 -79.453125 L 9.46875 -1.140625 C 9.46875 -0.457031 9.925781 0 10.609375 0 L 27.207031 0 C 27.890625 0 28.40625 -0.457031 28.40625 -1.140625 L 28.40625 -21.730469 L 42.722656 -39.183594 L 57.09375 -0.914062 C 57.378906 -0.226562 57.835938 0 58.40625 0 L 76.257812 0 C 77.113281 0 77.457031 -0.570312 77.113281 -1.425781 Z M 77.113281 -1.425781 "/></g></g></g><g fill="#ffde00" fill-opacity="1"><g transform="translate(531.529902, 440.250055)"><g><path d="M 10.609375 0 L 60.058594 0 C 60.746094 0 61.199219 -0.457031 61.199219 -1.140625 L 61.199219 -15.742188 C 61.199219 -16.484375 60.746094 -16.941406 60.058594 -16.941406 L 29.546875 -16.941406 C 28.859375 -16.941406 28.40625 -17.394531 28.40625 -18.082031 L 28.40625 -79.453125 C 28.40625 -80.136719 27.890625 -80.59375 27.207031 -80.59375 L 10.609375 -80.59375 C 9.925781 -80.59375 9.46875 -80.136719 9.46875 -79.453125 L 9.46875 -1.140625 C 9.46875 -0.457031 9.925781 0 10.609375 0 Z M 10.609375 0 "/></g></g><g transform="translate(594.955436, 440.250055)"><g><path d="M 30.628906 0 L 48.140625 0 C 48.824219 0 49.28125 -0.457031 49.28125 -1.140625 L 49.28125 -31.882812 L 77.34375 -79.226562 C 77.800781 -80.023438 77.457031 -80.59375 76.488281 -80.59375 L 56.867188 -80.59375 C 56.296875 -80.59375 55.726562 -80.367188 55.496094 -79.796875 L 39.128906 -49.851562 L 22.871094 -79.796875 C 22.644531 -80.367188 22.074219 -80.59375 21.503906 -80.59375 L 1.882812 -80.59375 C 0.914062 -80.59375 0.570312 -80.023438 1.027344 -79.226562 L 29.429688 -31.882812 L 29.429688 -1.140625 C 29.429688 -0.457031 29.886719 0 30.628906 0 Z M 30.628906 0 "/></g></g></g><g clip-path="url(#id1)"><path fill="#ffde00" d="M 138.167969 359.167969 L 162.15625 359.167969 L 162.15625 377.167969 L 138.167969 377.167969 L 138.167969 359.167969 " fill-opacity="1" fill-rule="nonzero"/></g></svg>